<?xml version="1.0" standalone="no"?>
<!DOCTYPE svg PUBLIC "-//W3C//DTD SVG 20010904//EN"
 "http://www.w3.org/TR/2001/REC-SVG-20010904/DTD/svg10.dtd">
<svg version="1.0" xmlns="http://www.w3.org/2000/svg"
 width="1600.000000pt" height="1600.000000pt" viewBox="0 0 1600.000000 1600.000000"
 preserveAspectRatio="xMidYMid meet">
<metadata>
Created by potrace 1.11, written by Peter Selinger 2001-2013
</metadata>
<g transform="translate(0.000000,1600.000000) scale(0.100000,-0.100000)"
fill="#000000" stroke="none">
<path d="M6000 11674 c-1279 -2010 -2326 -3660 -2328 -3667 -2 -12 4640 -2672
4663 -2672 14 0 4665 2657 4665 2665 0 12 -4657 7324 -4666 7326 -5 2 -1055
-1642 -2334 -3652z"/>
<path d="M3671 6993 c12 -29 4656 -6321 4664 -6319 9 2 4631 6265 4656 6309
10 17 8 17 -28 -2 -21 -10 -1070 -609 -2332 -1330 -1262 -722 -2300 -1310
-2306 -1307 -8 3 -4568 2606 -4649 2654 -5 2 -7 0 -5 -5z"/>
</g>
</svg>
